# Blender v2.83.5 OBJ File: 'Barrier.blend'
# www.blender.org
mtllib Barrier.mtl
o Obstacle_Cube
v 1.000000 -0.050000 0.010000
v 1.000000 0.050000 0.010000
v 1.000000 -0.050000 -0.010000
v 1.000000 0.050000 -0.010000
v 0.941534 0.100000 -0.020000
v 0.941534 -0.100000 0.020000
v 0.941534 -0.100000 -0.020000
v 0.941534 0.100000 0.020000
v 0.849937 -0.100000 -0.020000
v 0.849937 0.100000 0.020000
v 0.849937 0.100000 -0.020000
v 0.849937 -0.100000 0.020000
v 0.849937 -0.050000 -0.010000
v 0.849937 0.050000 0.010000
v 0.849937 0.050000 -0.010000
v 0.849937 -0.050000 0.010000
v 0.941534 0.050000 -0.010000
v 0.941534 -0.050000 0.010000
v 0.941534 -0.050000 -0.010000
v 0.941534 0.050000 0.010000
v 0.849937 -1.100000 0.020000
v 0.941534 -1.100000 0.020000
v 0.941534 -1.100000 -0.020000
v 0.849937 -1.100000 -0.020000
v -1.000000 -0.050000 0.010000
v -1.000000 0.050000 0.010000
v -1.000000 -0.050000 -0.010000
v -1.000000 0.050000 -0.010000
v -0.941534 0.100000 -0.020000
v -0.941534 -0.100000 0.020000
v -0.941534 -0.100000 -0.020000
v -0.941534 0.100000 0.020000
v -0.849937 -0.100000 -0.020000
v -0.849937 0.100000 0.020000
v -0.849937 0.100000 -0.020000
v -0.849937 -0.100000 0.020000
v -0.849937 -0.050000 -0.010000
v -0.849937 0.050000 0.010000
v -0.849937 0.050000 -0.010000
v -0.849937 -0.050000 0.010000
v -0.941534 0.050000 -0.010000
v -0.941534 -0.050000 0.010000
v -0.941534 -0.050000 -0.010000
v -0.941534 0.050000 0.010000
v -0.849937 -1.100000 0.020000
v -0.941534 -1.100000 0.020000
v -0.941534 -1.100000 -0.020000
v -0.849937 -1.100000 -0.020000
vt 0.869844 0.836956
vt 0.891990 0.873188
vt 0.869844 0.873188
vt 0.239846 0.749954
vt 0.277725 0.713722
vt 0.277725 0.749954
vt 0.352320 0.815172
vt 0.330174 0.851404
vt 0.330174 0.815172
vt 0.071970 0.648505
vt 0.034091 0.032609
vt 0.071970 0.032609
vt 0.246212 0.648505
vt 0.284091 0.032609
vt 0.284091 0.648505
vt 0.909091 0.449275
vt 0.890152 0.394928
vt 0.909091 0.413043
vt 0.965909 0.467391
vt 0.946970 0.449275
vt 0.698785 0.894928
vt 0.698785 0.967391
vt 0.664089 0.967391
vt 0.595907 0.605072
vt 0.595907 0.967391
vt 0.561211 0.967391
vt 0.659091 0.050725
vt 0.678030 0.105072
vt 0.659091 0.086957
vt 0.621212 0.086957
vt 0.034091 0.786186
vt 0.068787 0.713722
vt 0.068787 0.786186
vt 0.390152 0.648505
vt 0.352273 0.032609
vt 0.390152 0.032609
vt 0.493029 0.605072
vt 0.493029 0.967391
vt 0.458334 0.967391
vt 0.602273 0.032609
vt 0.602273 0.105072
vt 0.678030 0.032609
vt 0.869844 0.670290
vt 0.891990 0.634058
vt 0.891990 0.670290
vt 0.124419 0.851404
vt 0.146565 0.887635
vt 0.124419 0.887635
vt 0.946970 0.413043
vt 0.965909 0.394928
vt 0.965909 0.032609
vt 0.602273 0.467391
vt 0.034091 0.887635
vt 0.056237 0.851404
vt 0.056237 0.887635
vt 0.383785 0.749954
vt 0.345907 0.713722
vt 0.383785 0.713722
vt 0.891990 0.568841
vt 0.869844 0.532609
vt 0.891990 0.532609
vt 0.477273 0.086957
vt 0.458333 0.032609
vt 0.477273 0.050725
vt 0.534091 0.032609
vt 0.515152 0.050725
vt 0.766967 0.605072
vt 0.766967 0.532609
vt 0.801662 0.532609
vt 0.765152 0.086957
vt 0.746212 0.032609
vt 0.765152 0.050725
vt 0.803030 0.086957
vt 0.746212 0.105072
vt 0.136968 0.713722
vt 0.171664 0.786186
vt 0.136968 0.786186
vt 0.821970 0.032609
vt 0.821970 0.105072
vt 0.239846 0.815172
vt 0.261992 0.851404
vt 0.239846 0.851404
vt 0.869844 0.771739
vt 0.891990 0.735507
vt 0.891990 0.771739
vt 0.458333 0.105073
vt 0.515152 0.086957
vt 0.534091 0.105072
vt 0.534091 0.467391
vt 0.821970 0.467391
vt 0.140152 0.032609
vt 0.178030 0.648505
vt 0.140152 0.648505
vt 0.891990 0.836956
vt 0.239846 0.713722
vt 0.352320 0.851404
vt 0.034091 0.648505
vt 0.246212 0.032609
vt 0.890152 0.467391
vt 0.664089 0.894928
vt 0.664089 0.532609
vt 0.698785 0.532609
vt 0.561211 0.605072
vt 0.561211 0.532609
vt 0.595907 0.532609
vt 0.034091 0.713722
vt 0.352273 0.648505
vt 0.458333 0.605072
vt 0.458333 0.532609
vt 0.493029 0.532609
vt 0.621212 0.050725
vt 0.869844 0.634058
vt 0.146565 0.851404
vt 0.890152 0.032609
vt 0.678030 0.467391
vt 0.034091 0.851404
vt 0.345907 0.749954
vt 0.869844 0.568841
vt 0.801662 0.605072
vt 0.801662 0.967391
vt 0.766967 0.967391
vt 0.171664 0.713722
vt 0.803030 0.050725
vt 0.261992 0.815172
vt 0.869844 0.735507
vt 0.458334 0.467391
vt 0.746212 0.467391
vt 0.178030 0.032609
vn 0.0000 0.0000 -1.0000
vn 1.0000 0.0000 0.0000
vn 0.0000 -1.0000 0.0000
vn 0.0000 1.0000 0.0000
vn 0.0000 0.0000 1.0000
vn -1.0000 0.0000 0.0000
usemtl OstaclePaint
s off
f 17/1/1 3/2/1 19/3/1
f 4/4/2 1/5/2 3/6/2
f 3/7/3 18/8/3 19/9/3
f 40/10/3 13/11/3 16/12/3
f 38/13/4 15/14/4 39/15/4
f 20/16/2 6/17/2 18/18/2
f 5/19/2 20/16/2 17/20/2
f 9/21/1 11/22/1 5/23/1
f 30/24/5 46/25/5 45/26/5
f 15/27/6 9/28/6 13/29/6
f 9/28/6 16/30/6 13/29/6
f 11/31/4 8/32/4 5/33/4
f 37/34/1 15/35/1 13/36/1
f 12/37/5 21/38/5 22/39/5
f 10/40/6 16/30/6 12/41/6
f 15/27/6 10/40/6 11/42/6
f 17/43/4 2/44/4 4/45/4
f 2/46/5 18/47/5 1/48/5
f 19/49/2 6/17/2 7/50/2
f 5/19/2 19/49/2 7/50/2
f 6/17/2 23/51/2 7/50/2
f 9/28/6 21/52/6 12/41/6
f 27/53/1 41/54/1 43/55/1
f 25/56/6 28/57/6 27/58/6
f 42/59/3 27/60/3 43/61/3
f 42/62/6 32/63/6 44/64/6
f 44/64/6 29/65/6 41/66/6
f 31/67/1 29/68/1 35/69/1
f 37/70/2 35/71/2 39/72/2
f 40/73/2 33/74/2 37/70/2
f 32/75/4 35/76/4 29/77/4
f 40/73/2 34/78/2 36/79/2
f 34/78/2 39/72/2 35/71/2
f 26/80/4 41/81/4 28/82/4
f 42/83/5 26/84/5 25/85/5
f 30/86/6 43/87/6 31/88/6
f 43/87/6 29/65/6 31/88/6
f 47/89/6 30/86/6 31/88/6
f 45/90/2 33/74/2 36/79/2
f 16/91/5 38/92/5 40/93/5
f 17/1/1 4/94/1 3/2/1
f 4/4/2 2/95/2 1/5/2
f 3/7/3 1/96/3 18/8/3
f 40/10/3 37/97/3 13/11/3
f 38/13/4 14/98/4 15/14/4
f 20/16/2 8/99/2 6/17/2
f 5/19/2 8/99/2 20/16/2
f 5/23/1 7/100/1 9/21/1
f 7/100/1 23/101/1 9/21/1
f 23/101/1 24/102/1 9/21/1
f 45/26/5 36/103/5 30/24/5
f 36/103/5 34/104/5 30/24/5
f 34/104/5 32/105/5 30/24/5
f 15/27/6 11/42/6 9/28/6
f 9/28/6 12/41/6 16/30/6
f 11/31/4 10/106/4 8/32/4
f 37/34/1 39/107/1 15/35/1
f 22/39/5 6/108/5 12/37/5
f 6/108/5 8/109/5 12/37/5
f 8/109/5 10/110/5 12/37/5
f 10/40/6 14/111/6 16/30/6
f 15/27/6 14/111/6 10/40/6
f 17/43/4 20/112/4 2/44/4
f 2/46/5 20/113/5 18/47/5
f 19/49/2 18/18/2 6/17/2
f 5/19/2 17/20/2 19/49/2
f 6/17/2 22/114/2 23/51/2
f 9/28/6 24/115/6 21/52/6
f 27/53/1 28/116/1 41/54/1
f 25/56/6 26/117/6 28/57/6
f 42/59/3 25/118/3 27/60/3
f 42/62/6 30/86/6 32/63/6
f 44/64/6 32/63/6 29/65/6
f 35/69/1 33/119/1 31/67/1
f 33/119/1 48/120/1 31/67/1
f 48/120/1 47/121/1 31/67/1
f 37/70/2 33/74/2 35/71/2
f 40/73/2 36/79/2 33/74/2
f 32/75/4 34/122/4 35/76/4
f 40/73/2 38/123/2 34/78/2
f 34/78/2 38/123/2 39/72/2
f 26/80/4 44/124/4 41/81/4
f 42/83/5 44/125/5 26/84/5
f 30/86/6 42/62/6 43/87/6
f 43/87/6 41/66/6 29/65/6
f 47/89/6 46/126/6 30/86/6
f 45/90/2 48/127/2 33/74/2
f 16/91/5 14/128/5 38/92/5
o Paint_Cube.002
v 1.000000 -0.050000 0.010000
v 1.000000 0.050000 0.010000
v 1.000000 -0.050000 -0.010000
v 1.000000 0.050000 -0.010000
v 0.941534 0.100000 -0.020000
v 0.941534 -0.100000 0.020000
v 0.941534 -0.100000 -0.020000
v 0.941534 0.100000 0.020000
v 0.849937 -0.100000 -0.020000
v 0.849937 0.100000 0.020000
v 0.849937 0.100000 -0.020000
v 0.849937 -0.100000 0.020000
v 0.849937 -0.050000 -0.010000
v 0.849937 0.050000 0.010000
v 0.849937 0.050000 -0.010000
v 0.849937 -0.050000 0.010000
v 0.941534 0.050000 -0.010000
v 0.941534 -0.050000 0.010000
v 0.941534 -0.050000 -0.010000
v 0.941534 0.050000 0.010000
v 0.849937 -1.100000 0.020000
v 0.941534 -1.100000 0.020000
v 0.941534 -1.100000 -0.020000
v 0.849937 -1.100000 -0.020000
v -1.000000 -0.050000 0.010000
v -1.000000 0.050000 0.010000
v -1.000000 -0.050000 -0.010000
v -1.000000 0.050000 -0.010000
v -0.941534 0.100000 -0.020000
v -0.941534 -0.100000 0.020000
v -0.941534 -0.100000 -0.020000
v -0.941534 0.100000 0.020000
v -0.849937 -0.100000 -0.020000
v -0.849937 0.100000 0.020000
v -0.849937 0.100000 -0.020000
v -0.849937 -0.100000 0.020000
v -0.849937 -0.050000 -0.010000
v -0.849937 0.050000 0.010000
v -0.849937 0.050000 -0.010000
v -0.849937 -0.050000 0.010000
v -0.941534 0.050000 -0.010000
v -0.941534 -0.050000 0.010000
v -0.941534 -0.050000 -0.010000
v -0.941534 0.050000 0.010000
v -0.849937 -1.100000 0.020000
v -0.941534 -1.100000 0.020000
v -0.941534 -1.100000 -0.020000
v -0.849937 -1.100000 -0.020000
v -0.719178 -0.050000 -0.010000
v -0.588418 -0.050000 -0.010000
v -0.457658 -0.050000 -0.010000
v -0.326899 -0.050000 -0.010000
v -0.196139 -0.050000 -0.010000
v -0.065380 -0.050000 -0.010000
v 0.065380 -0.050000 -0.010000
v 0.196139 -0.050000 -0.010000
v 0.326899 -0.050000 -0.010000
v 0.457658 -0.050000 -0.010000
v 0.588418 -0.050000 -0.010000
v 0.719178 -0.050000 -0.010000
v -0.719178 0.050000 0.010000
v -0.588418 0.050000 0.010000
v -0.457658 0.050000 0.010000
v -0.326899 0.050000 0.010000
v -0.196139 0.050000 0.010000
v -0.065380 0.050000 0.010000
v 0.065380 0.050000 0.010000
v 0.196139 0.050000 0.010000
v 0.326899 0.050000 0.010000
v 0.457658 0.050000 0.010000
v 0.588418 0.050000 0.010000
v 0.719178 0.050000 0.010000
v 0.719178 0.050000 -0.010000
v 0.588418 0.050000 -0.010000
v 0.457658 0.050000 -0.010000
v 0.326899 0.050000 -0.010000
v 0.196139 0.050000 -0.010000
v 0.065380 0.050000 -0.010000
v -0.065380 0.050000 -0.010000
v -0.196139 0.050000 -0.010000
v -0.326899 0.050000 -0.010000
v -0.457658 0.050000 -0.010000
v -0.588418 0.050000 -0.010000
v -0.719178 0.050000 -0.010000
v 0.719178 -0.050000 0.010000
v 0.588418 -0.050000 0.010000
v 0.457658 -0.050000 0.010000
v 0.326899 -0.050000 0.010000
v 0.196139 -0.050000 0.010000
v 0.065380 -0.050000 0.010000
v -0.065380 -0.050000 0.010000
v -0.196139 -0.050000 0.010000
v -0.326899 -0.050000 0.010000
v -0.457658 -0.050000 0.010000
v -0.588418 -0.050000 0.010000
v -0.719178 -0.050000 0.010000
vn 0.0000 0.0000 -1.0000
vn 1.0000 0.0000 0.0000
vn 0.0000 -1.0000 0.0000
vn 0.0000 1.0000 0.0000
vn 0.0000 0.0000 1.0000
vn -1.0000 0.0000 0.0000
usemtl WhiteStripe
s off
f 65//7 51//7 67//7
f 52//8 49//8 51//8
f 51//9 66//9 67//9
f 65//10 50//10 52//10
f 50//11 66//11 49//11
f 75//7 89//7 91//7
f 73//12 76//12 75//12
f 90//9 75//9 91//9
f 74//10 89//10 76//10
f 90//11 74//11 73//11
f 143//11 109//11 144//11
f 141//11 111//11 142//11
f 139//11 113//11 140//11
f 137//11 115//11 138//11
f 135//11 117//11 136//11
f 133//11 119//11 134//11
f 107//7 121//7 108//7
f 105//7 123//7 106//7
f 103//7 125//7 104//7
f 101//7 127//7 102//7
f 99//7 129//7 100//7
f 97//7 131//7 98//7
f 109//10 131//10 132//10
f 111//10 129//10 130//10
f 113//10 127//10 128//10
f 115//10 125//10 126//10
f 117//10 123//10 124//10
f 119//10 121//10 122//10
f 133//9 107//9 108//9
f 135//9 105//9 106//9
f 137//9 103//9 104//9
f 139//9 101//9 102//9
f 141//9 99//9 100//9
f 143//9 97//9 98//9
f 65//7 52//7 51//7
f 52//8 50//8 49//8
f 51//9 49//9 66//9
f 65//10 68//10 50//10
f 50//11 68//11 66//11
f 75//7 76//7 89//7
f 73//12 74//12 76//12
f 90//9 73//9 75//9
f 74//10 92//10 89//10
f 90//11 92//11 74//11
f 143//11 110//11 109//11
f 141//11 112//11 111//11
f 139//11 114//11 113//11
f 137//11 116//11 115//11
f 135//11 118//11 117//11
f 133//11 120//11 119//11
f 107//7 122//7 121//7
f 105//7 124//7 123//7
f 103//7 126//7 125//7
f 101//7 128//7 127//7
f 99//7 130//7 129//7
f 97//7 132//7 131//7
f 109//10 110//10 131//10
f 111//10 112//10 129//10
f 113//10 114//10 127//10
f 115//10 116//10 125//10
f 117//10 118//10 123//10
f 119//10 120//10 121//10
f 133//9 134//9 107//9
f 135//9 136//9 105//9
f 137//9 138//9 103//9
f 139//9 140//9 101//9
f 141//9 142//9 99//9
f 143//9 144//9 97//9
usemtl RedStripe
f 88//9 97//9 144//9
f 120//10 63//10 121//10
f 85//7 132//7 97//7
f 64//11 120//11 133//11
f 144//11 86//11 88//11
f 142//11 110//11 143//11
f 140//11 112//11 141//11
f 138//11 114//11 139//11
f 136//11 116//11 137//11
f 134//11 118//11 135//11
f 108//7 63//7 61//7
f 106//7 122//7 107//7
f 104//7 124//7 105//7
f 102//7 126//7 103//7
f 100//7 128//7 101//7
f 98//7 130//7 99//7
f 86//10 132//10 87//10
f 110//10 130//10 131//10
f 112//10 128//10 129//10
f 114//10 126//10 127//10
f 116//10 124//10 125//10
f 118//10 122//10 123//10
f 133//9 61//9 64//9
f 134//9 106//9 107//9
f 136//9 104//9 105//9
f 138//9 102//9 103//9
f 140//9 100//9 101//9
f 142//9 98//9 99//9
f 88//9 85//9 97//9
f 120//10 62//10 63//10
f 85//7 87//7 132//7
f 64//11 62//11 120//11
f 144//11 109//11 86//11
f 142//11 111//11 110//11
f 140//11 113//11 112//11
f 138//11 115//11 114//11
f 136//11 117//11 116//11
f 134//11 119//11 118//11
f 108//7 121//7 63//7
f 106//7 123//7 122//7
f 104//7 125//7 124//7
f 102//7 127//7 126//7
f 100//7 129//7 128//7
f 98//7 131//7 130//7
f 86//10 109//10 132//10
f 110//10 111//10 130//10
f 112//10 113//10 128//10
f 114//10 115//10 126//10
f 116//10 117//10 124//10
f 118//10 119//10 122//10
f 133//9 108//9 61//9
f 134//9 135//9 106//9
f 136//9 137//9 104//9
f 138//9 139//9 102//9
f 140//9 141//9 100//9
f 142//9 143//9 98//9
usemtl Base
f 68//8 54//8 66//8
f 53//8 68//8 65//8
f 57//7 59//7 53//7
f 78//11 94//11 93//11
f 63//12 57//12 61//12
f 57//12 64//12 61//12
f 59//10 56//10 53//10
f 60//11 69//11 70//11
f 58//12 64//12 60//12
f 63//12 58//12 59//12
f 67//8 54//8 55//8
f 53//8 67//8 55//8
f 54//8 71//8 55//8
f 57//12 69//12 60//12
f 78//12 92//12 90//12
f 92//12 77//12 89//12
f 79//7 77//7 83//7
f 81//8 87//8 85//8
f 88//8 81//8 85//8
f 80//10 83//10 77//10
f 88//8 82//8 84//8
f 82//8 87//8 83//8
f 78//12 91//12 79//12
f 91//12 77//12 79//12
f 95//12 78//12 79//12
f 93//8 81//8 84//8
f 68//8 56//8 54//8
f 53//8 56//8 68//8
f 53//7 55//7 57//7
f 55//7 71//7 57//7
f 71//7 72//7 57//7
f 93//11 84//11 78//11
f 84//11 82//11 78//11
f 82//11 80//11 78//11
f 63//12 59//12 57//12
f 57//12 60//12 64//12
f 59//10 58//10 56//10
f 70//11 54//11 60//11
f 54//11 56//11 60//11
f 56//11 58//11 60//11
f 58//12 62//12 64//12
f 63//12 62//12 58//12
f 67//8 66//8 54//8
f 53//8 65//8 67//8
f 54//8 70//8 71//8
f 57//12 72//12 69//12
f 78//12 80//12 92//12
f 92//12 80//12 77//12
f 83//7 81//7 79//7
f 81//7 96//7 79//7
f 96//7 95//7 79//7
f 81//8 83//8 87//8
f 88//8 84//8 81//8
f 80//10 82//10 83//10
f 88//8 86//8 82//8
f 82//8 86//8 87//8
f 78//12 90//12 91//12
f 91//12 89//12 77//12
f 95//12 94//12 78//12
f 93//8 96//8 81//8
o Cube.001
v 1.000000 -0.050000 0.010000
v 1.000000 0.050000 0.010000
v 1.000000 -0.050000 -0.010000
v 1.000000 0.050000 -0.010000
v 0.941534 0.100000 -0.020000
v 0.941534 -0.100000 0.020000
v 0.941534 -0.100000 -0.020000
v 0.941534 0.100000 0.020000
v 0.849937 -0.100000 -0.020000
v 0.849937 0.100000 0.020000
v 0.849937 0.100000 -0.020000
v 0.849937 -0.100000 0.020000
v 0.849937 -0.050000 -0.010000
v 0.849937 0.050000 0.010000
v 0.849937 0.050000 -0.010000
v 0.849937 -0.050000 0.010000
v 0.941534 0.050000 -0.010000
v 0.941534 -0.050000 0.010000
v 0.941534 -0.050000 -0.010000
v 0.941534 0.050000 0.010000
v 0.849937 -1.100000 0.020000
v 0.941534 -1.100000 0.020000
v 0.941534 -1.100000 -0.020000
v 0.849937 -1.100000 -0.020000
v -1.000000 -0.050000 0.010000
v -1.000000 0.050000 0.010000
v -1.000000 -0.050000 -0.010000
v -1.000000 0.050000 -0.010000
v -0.941534 0.100000 -0.020000
v -0.941534 -0.100000 0.020000
v -0.941534 -0.100000 -0.020000
v -0.941534 0.100000 0.020000
v -0.849937 -0.100000 -0.020000
v -0.849937 0.100000 0.020000
v -0.849937 0.100000 -0.020000
v -0.849937 -0.100000 0.020000
v -0.849937 -0.050000 -0.010000
v -0.849937 0.050000 0.010000
v -0.849937 0.050000 -0.010000
v -0.849937 -0.050000 0.010000
v -0.941534 0.050000 -0.010000
v -0.941534 -0.050000 0.010000
v -0.941534 -0.050000 -0.010000
v -0.941534 0.050000 0.010000
v -0.849937 -1.100000 0.020000
v -0.941534 -1.100000 0.020000
v -0.941534 -1.100000 -0.020000
v -0.849937 -1.100000 -0.020000
vn 0.0000 0.0000 -1.0000
vn 1.0000 0.0000 0.0000
vn 0.0000 -1.0000 0.0000
vn 0.0000 1.0000 0.0000
vn 0.0000 0.0000 1.0000
vn -1.0000 0.0000 0.0000
usemtl None
s off
f 161//13 147//13 163//13
f 148//14 145//14 147//14
f 147//15 162//15 163//15
f 184//15 157//15 160//15
f 182//16 159//16 183//16
f 164//14 150//14 162//14
f 149//14 164//14 161//14
f 153//13 155//13 149//13
f 174//17 190//17 189//17
f 159//18 153//18 157//18
f 153//18 160//18 157//18
f 155//16 152//16 149//16
f 181//13 159//13 157//13
f 156//17 165//17 166//17
f 154//18 160//18 156//18
f 159//18 154//18 155//18
f 161//16 146//16 148//16
f 146//17 162//17 145//17
f 163//14 150//14 151//14
f 149//14 163//14 151//14
f 150//14 167//14 151//14
f 153//18 165//18 156//18
f 171//13 185//13 187//13
f 169//18 172//18 171//18
f 186//15 171//15 187//15
f 174//18 188//18 186//18
f 188//18 173//18 185//18
f 175//13 173//13 179//13
f 177//14 183//14 181//14
f 184//14 177//14 181//14
f 176//16 179//16 173//16
f 184//14 178//14 180//14
f 178//14 183//14 179//14
f 170//16 185//16 172//16
f 186//17 170//17 169//17
f 174//18 187//18 175//18
f 187//18 173//18 175//18
f 191//18 174//18 175//18
f 189//14 177//14 180//14
f 160//17 182//17 184//17
f 161//13 148//13 147//13
f 148//14 146//14 145//14
f 147//15 145//15 162//15
f 184//15 181//15 157//15
f 182//16 158//16 159//16
f 164//14 152//14 150//14
f 149//14 152//14 164//14
f 149//13 151//13 153//13
f 151//13 167//13 153//13
f 167//13 168//13 153//13
f 189//17 180//17 174//17
f 180//17 178//17 174//17
f 178//17 176//17 174//17
f 159//18 155//18 153//18
f 153//18 156//18 160//18
f 155//16 154//16 152//16
f 181//13 183//13 159//13
f 166//17 150//17 156//17
f 150//17 152//17 156//17
f 152//17 154//17 156//17
f 154//18 158//18 160//18
f 159//18 158//18 154//18
f 161//16 164//16 146//16
f 146//17 164//17 162//17
f 163//14 162//14 150//14
f 149//14 161//14 163//14
f 150//14 166//14 167//14
f 153//18 168//18 165//18
f 171//13 172//13 185//13
f 169//18 170//18 172//18
f 186//15 169//15 171//15
f 174//18 176//18 188//18
f 188//18 176//18 173//18
f 179//13 177//13 175//13
f 177//13 192//13 175//13
f 192//13 191//13 175//13
f 177//14 179//14 183//14
f 184//14 180//14 177//14
f 176//16 178//16 179//16
f 184//14 182//14 178//14
f 178//14 182//14 183//14
f 170//16 188//16 185//16
f 186//17 188//17 170//17
f 174//18 186//18 187//18
f 187//18 185//18 173//18
f 191//18 190//18 174//18
f 189//14 192//14 177//14
f 160//17 158//17 182//17
